<?xml version="1.0" encoding="UTF-8"?>
<svg version="1.1" xmlns="http://www.w3.org/2000/svg" width="2212" height="724">
<path d="M0 0 C3.03068296 0.0214131 6.05898944 0.00014478 9.08959961 -0.02539062 C23.09503565 -0.04590081 34.7249013 0.77578614 45.60327148 10.52148438 C46.2078418 11.02292969 46.81241211 11.524375 47.43530273 12.04101562 C58.24249794 21.71804663 61.72349917 37.93542193 66.2015686 51.1809082 C68.0834131 56.74579865 69.98856912 62.30268796 71.8918972 67.86026001 C72.54219909 69.76002995 73.19149992 71.66013979 73.84065247 73.56030273 C77.78016065 85.07813966 81.83145855 96.55435855 85.91577148 108.02148438 C92.48058044 126.47818422 98.96515096 144.96215067 105.41577148 163.45898438 C107.29455757 168.84574504 109.17345315 174.23246751 111.05249023 179.61914062 C111.4011744 180.61877838 111.4011744 180.61877838 111.75690269 181.63861084 C116.73074438 195.89706584 121.72606665 210.14795542 126.72827148 224.39648438 C127.13695465 225.56065887 127.54563782 226.72483337 127.96670532 227.92428589 C130.02268245 233.78067945 132.07900296 239.63695236 134.13549805 245.49316406 C137.87610264 256.14571511 141.61353863 266.799378 145.35125732 277.45294189 C147.43513641 283.39250014 149.51921384 289.33198878 151.60327148 295.27148438 C152.43660577 297.64648404 153.2699391 300.02148404 154.10327148 302.39648438 C154.72202148 304.15992188 154.72202148 304.15992188 155.35327148 305.95898438 C163.26993815 328.52148438 171.18660482 351.08398437 179.10327148 373.64648438 C179.72196861 375.40977081 179.72196861 375.40977081 180.35316467 377.2086792 C181.18685468 379.58469623 182.02054405 381.96071348 182.85423279 384.33673096 C184.93210381 390.25867223 187.00998572 396.18060968 189.08789062 402.10253906 C192.46408469 411.72456162 195.84027156 421.34658669 199.21606445 430.96875 C199.65054398 432.20713623 200.0850235 433.44552246 200.53266907 434.72143555 C201.40839985 437.21766052 202.28404114 439.71391688 203.15959167 442.21020508 C205.29013567 448.28417491 207.42224478 454.35758502 209.55810547 460.4296875 C212.96010496 470.10530227 216.36015432 479.78089204 219.68254089 489.48419189 C220.89432666 493.02301243 222.1136069 496.55922926 223.33328247 500.09533691 C224.1427156 502.45429193 224.93945438 504.81727914 225.73583984 507.18066406 C226.2131065 508.5653385 226.69100732 509.94979458 227.16967773 511.33398438 C227.77211304 513.10708984 227.77211304 513.10708984 228.38671875 514.91601562 C228.78818115 515.77582031 229.18964355 516.635625 229.60327148 517.52148438 C230.59327148 517.85148438 231.58327148 518.18148437 232.60327148 518.52148438 C232.6017526 517.53652666 232.60023372 516.55156894 232.59866881 515.53676403 C232.50898594 457.14955932 232.44050922 398.76235513 232.39901017 340.37509649 C232.39402098 333.36318269 232.38883475 326.35126905 232.38354492 319.33935547 C232.38302189 318.64159972 232.38249885 317.94384396 232.38195996 317.22494409 C232.36492599 294.62393274 232.33488929 272.02296149 232.2980826 249.42197441 C232.25924437 225.53003261 232.23527964 201.63811911 232.22691751 177.74614632 C232.22143132 163.43859688 232.20410862 149.13116258 232.17160562 134.82364859 C232.1504485 125.01010008 232.14407418 115.19661103 232.14926597 105.38304137 C232.15182585 99.72263321 232.14792418 94.06242616 232.12644958 88.40205383 C232.10691061 83.21386247 232.10604914 78.02600649 232.1196759 72.83779933 C232.12135881 70.96676176 232.11634721 69.09570283 232.10373875 67.22470699 C231.98333565 48.24510725 235.65123686 33.19113781 248.98217773 18.91601562 C259.51245521 9.29595587 271.88490749 4.40600833 286.03961372 4.39005661 C287.3225658 4.38621547 288.60551789 4.38237432 289.9273473 4.37841678 C291.3438277 4.37919693 292.76030805 4.3800757 294.17678833 4.38104248 C295.68721685 4.37845742 297.19764469 4.37544386 298.70807159 4.37203908 C302.85572916 4.36398239 307.00336941 4.36218025 311.15103388 4.36144161 C315.62564208 4.35958873 320.10024134 4.3520402 324.57484436 4.3453064 C334.3580394 4.3317319 344.14123034 4.3256997 353.92443323 4.32129574 C360.03497943 4.31853176 366.14552405 4.31429412 372.25606918 4.30979156 C389.17967441 4.29759994 406.10327837 4.28730049 423.02688789 4.28391647 C424.10977175 4.28369691 425.19265561 4.28347734 426.30835413 4.28325112 C427.39380593 4.28303284 428.47925773 4.28281457 429.59760201 4.28258967 C431.79708298 4.28214621 433.99656395 4.28169965 436.19604492 4.28125 C437.28705981 4.28102857 438.3780747 4.28080714 439.50215064 4.280579 C457.17639806 4.27663185 474.85060423 4.25917989 492.52483572 4.23589048 C510.67760446 4.21216389 528.83035252 4.19971402 546.98313701 4.19854856 C557.17244709 4.19763252 567.36170343 4.19189819 577.55099869 4.17372894 C586.22823472 4.15831031 594.90540039 4.15321789 603.58264752 4.16146705 C608.00741109 4.16536733 612.43203305 4.1644744 616.8567791 4.1504097 C620.91337722 4.13763349 624.96972785 4.13890074 629.02632581 4.15100041 C630.48799466 4.15295099 631.94968128 4.14990874 633.41132523 4.14115605 C650.83962617 4.04346137 664.49306533 7.95395569 677.31420898 20.10351562 C689.98034073 33.48292782 692.88872408 48.62845341 692.92211914 66.52026367 C692.93216476 67.770327 692.94221039 69.02039032 692.95256042 70.30833435 C692.97796263 73.70017261 692.99493215 77.09184734 693.00798845 80.48374152 C693.02373324 84.04184588 693.05048656 87.59986805 693.07601929 91.15791321 C693.12260789 97.87946626 693.15944766 104.60103513 693.19269216 111.32266599 C693.23105525 118.98183492 693.28042771 126.64092089 693.33067632 134.30001962 C693.43369951 150.04044771 693.52305514 165.78092252 693.60327148 181.52148438 C697.24819173 179.5062919 700.89192504 177.48897307 704.53466797 175.46984863 C705.76873489 174.78618677 707.00310001 174.10306282 708.23779297 173.42053223 C716.89824478 168.63245405 725.49920699 163.75865371 733.94042969 158.59057617 C735.78518186 157.49213756 737.68980439 156.49530245 739.60327148 155.52148438 C742.60327148 156.52148437 742.60327148 156.52148437 744.43530273 159.63476562 C745.1114687 161.02684205 745.77041724 162.42735895 746.41577148 163.83398438 C746.76470459 164.59163086 747.1136377 165.34927734 747.47314453 166.12988281 C762.70344058 200.30314255 763.91470583 239.51558948 750.60327148 274.52148438 C742.9032796 293.69868868 731.98871097 309.7764089 717.60327148 324.52148438 C716.96389648 325.22273438 716.32452148 325.92398437 715.66577148 326.64648438 C711.43296507 331.17120847 706.69669903 334.8490919 701.72827148 338.52148438 C701.06085938 339.01527588 700.39344727 339.50906738 699.70581055 340.01782227 C694.85888149 343.52148438 694.85888149 343.52148438 692.60327148 343.52148438 C692.60603686 344.13549103 692.60880224 344.74949768 692.61165142 345.3821106 C692.67819775 360.39237369 692.72769036 375.40259083 692.758708 390.41296387 C692.77411048 397.67217338 692.79507161 404.93128382 692.82958984 412.19042969 C692.85969683 418.52496985 692.87889444 424.85943819 692.88553697 431.19404793 C692.88941365 434.54146652 692.90001013 437.88851855 692.92046165 441.23590088 C693.07400115 467.42635173 691.22354484 490.94801847 671.97827148 510.70898438 C659.63356414 522.8480436 643.46417076 530.69250466 626.01049519 530.65570545 C625.25035054 530.65805768 624.4902059 530.66040991 623.70702657 530.66283342 C621.15113101 530.66950853 618.59528647 530.66906565 616.03938293 530.6686554 C614.19173518 530.67195497 612.34408814 530.67568074 610.49644202 530.67979687 C605.41178052 530.6898148 600.32713082 530.69353336 595.24246085 530.69618618 C589.76089389 530.70008999 584.27933627 530.70966846 578.79777527 530.71839905 C565.55382703 530.73816402 552.30987802 530.74823092 539.06591871 530.75712684 C532.8265705 530.76151076 526.58722314 530.7668774 520.3478756 530.77211571 C499.60094924 530.78913003 478.85402319 530.80364756 458.10709095 530.81086445 C456.76545323 530.8113392 455.42381552 530.81181509 454.0821778 530.81229211 C453.41686289 530.81252849 452.75154797 530.81276486 452.066072 530.8130084 C448.69541519 530.81420956 445.32475837 530.81542502 441.95410156 530.81665039 C441.28519045 530.81689054 440.61627933 530.81713069 439.92709818 530.81737812 C418.26048894 530.82526344 396.59393458 530.84867823 374.92734929 530.88120633 C352.00434898 530.91555762 329.08137077 530.93521952 306.15834254 530.93850869 C293.66944397 530.94067125 281.18062601 530.94938254 268.69175148 530.97496986 C258.05191558 530.99671856 247.41217985 531.00470687 236.77232424 530.99500308 C231.34834253 530.99047014 225.92456732 530.99228593 220.50061417 531.01176453 C215.52396731 531.02948144 210.5476763 531.02832975 205.57102522 531.01286723 C203.78149446 531.01050401 201.9919385 531.01474702 200.20244608 531.02669588 C171.7947411 531.20445614 147.99621626 522.28284315 127.39233398 502.41210938 C117.26450164 492.20770923 110.04204077 479.77910943 105.22827148 466.33398438 C104.65592773 464.77139893 104.65592773 464.77139893 104.07202148 463.17724609 C100.48432381 453.33038217 97.03652642 443.43394488 93.63369751 433.52191162 C91.80200164 428.18832137 89.95842613 422.85883869 88.11499023 417.52929688 C87.73791428 416.43876007 87.36083832 415.34822327 86.97233582 414.22463989 C83.17655271 403.26182866 79.30196641 392.32750402 75.41577148 381.39648438 C68.74552246 362.6276644 62.15958823 343.83030904 55.60327148 325.02148438 C48.82121922 305.5658671 42.00258979 286.12426346 35.10412598 266.70953369 C27.89207563 246.40603457 20.7902665 226.06436401 13.6999321 205.71811485 C12.78520677 203.09334349 11.87016541 200.46868234 10.95514679 197.84401321 C10.33298389 196.05871454 9.71149042 194.27318262 9.09002686 192.48764038 C6.30081164 184.48446053 3.46382761 176.49939129 0.60327148 168.52148438 C-2.07063498 171.94839696 -3.68174662 175.24010442 -5.33813477 179.27539062 C-5.61743332 179.95080902 -5.89673187 180.62622742 -6.18449402 181.32211304 C-6.79295185 182.79540098 -7.39878849 184.26977355 -8.00231934 185.74508667 C-8.98117723 188.13763188 -9.96683633 190.52727332 -10.9543457 192.91625977 C-12.00920565 195.46851972 -13.0635867 198.02096831 -14.11593628 200.57426453 C-18.09042365 210.21748869 -22.11680093 219.83882758 -26.14672852 229.45898438 C-26.9046275 231.2696105 -27.66252133 233.08023877 -28.42041016 234.89086914 C-34.28266872 248.89007993 -40.18347107 262.87287321 -46.09338379 276.85202026 C-51.88963067 290.56335114 -57.655941 304.28684513 -63.39672852 318.02148438 C-69.9279642 333.64724404 -76.49947833 349.2555465 -83.09448242 364.85449219 C-88.51628196 377.68011182 -93.91454045 390.51525665 -99.28500366 403.36245728 C-101.87676533 409.5614412 -104.47213756 415.75891462 -107.06713867 421.95654297 C-108.68517973 425.82095962 -110.30177165 429.68597929 -111.91772461 433.55126953 C-114.05474456 438.66146864 -116.19713219 443.7693917 -118.34277344 448.87597656 C-119.1566532 450.81520315 -119.96888698 452.75512156 -120.77929688 454.69580078 C-133.50005357 485.14973585 -133.50005357 485.14973585 -140.89672852 493.95898438 C-141.37392334 494.54260742 -141.85111816 495.12623047 -142.34277344 495.72753906 C-143.67662909 497.34145693 -145.03038401 498.93505753 -146.39672852 500.52148438 C-146.98067383 501.20855469 -147.56461914 501.895625 -148.16625977 502.60351562 C-162.79213062 518.41426716 -185.87221801 529.27497771 -207.21780205 530.71131325 C-210.18127736 530.78566021 -213.13911924 530.80329853 -216.10351562 530.79614258 C-217.21726059 530.80125351 -218.33100555 530.80636444 -219.47850037 530.81163025 C-223.12708037 530.82542777 -226.77546942 530.82457707 -230.42407227 530.82226562 C-232.98035247 530.82615757 -235.53663203 530.83049327 -238.09291077 530.83525085 C-243.43794115 530.84269165 -248.78290261 530.84257703 -254.12792969 530.8371582 C-260.27701277 530.83111943 -266.42586699 530.8434384 -272.57491106 530.86472827 C-278.52775657 530.88456887 -284.48053211 530.88750633 -290.43341255 530.88399315 C-292.94943339 530.88450419 -295.46545806 530.88970082 -297.98145866 530.89980507 C-301.50799759 530.91223244 -305.0340154 530.90534004 -308.56054688 530.89379883 C-309.58480774 530.90144257 -310.6090686 530.9090863 -311.66436768 530.91696167 C-321.81075966 530.84408949 -331.36902654 528.62347428 -340.39672852 523.95898438 C-341.06969971 523.61383789 -341.7426709 523.26869141 -342.43603516 522.91308594 C-358.75558668 514.20261484 -370.78299757 499.68858034 -376.5172689 482.08071089 C-379.40429052 471.41223584 -379.95509136 461.4876466 -379.87774658 450.47570801 C-379.87949475 448.60161179 -379.88300415 446.72751655 -379.88810325 444.85342646 C-379.89697886 439.74733842 -379.8811425 434.64159079 -379.860991 429.53554606 C-379.84362262 424.01294073 -379.84956931 418.49035265 -379.8526001 412.96772766 C-379.85469155 403.41392007 -379.84220393 393.86022225 -379.81964874 384.30644226 C-379.78705961 370.49351253 -379.77671466 356.68063556 -379.77169678 342.86767155 C-379.76295496 320.45390681 -379.73640414 298.04019542 -379.69848633 275.62646484 C-379.66170817 253.86116844 -379.63339357 232.09588769 -379.61645508 210.33056641 C-379.61592897 209.65885161 -379.61540287 208.98713681 -379.61486082 208.29506702 C-379.60958643 201.54900769 -379.60448322 194.80294823 -379.59950538 188.05688867 C-379.55778997 131.54504622 -379.48724979 75.0332684 -379.39672852 18.52148438 C-381.32031458 18.61380982 -383.2429757 18.72554336 -385.16503906 18.84545898 C-386.23578171 18.90559677 -387.30652435 18.96573456 -388.40971375 19.0276947 C-393.20939958 19.82114083 -395.29945738 22.39729238 -398.20922852 26.08398438 C-399.39429837 27.46386023 -400.58053574 28.8427341 -401.76782227 30.22070312 C-402.36449707 30.93403809 -402.96117187 31.64737305 -403.57592773 32.38232422 C-406.51697576 35.83760215 -409.64777679 39.1072745 -412.77172852 42.39648438 C-414.03033111 43.73688877 -415.28813593 45.07804267 -416.54516602 46.41992188 C-421.16279384 51.33926301 -425.78819465 56.25127888 -430.41357422 61.16333008 C-437.41969886 68.60505105 -444.40886925 76.06261617 -451.39672852 83.52148438 C-459.7263219 92.41252482 -468.06352363 101.29623488 -476.41601562 110.16577148 C-480.91584226 114.94516507 -485.40865373 119.73105508 -489.89672852 124.52148438 C-495.72741547 130.7449755 -501.56962857 136.95750397 -507.41625977 143.16601562 C-511.9159906 147.94534138 -516.40873238 152.73113902 -520.89672852 157.52148438 C-526.72741547 163.7449755 -532.56962857 169.95750397 -538.41625977 176.16601562 C-542.9159906 180.94534138 -547.40873238 185.73113902 -551.89672852 190.52148438 C-557.05607082 196.02840343 -562.22329582 201.5278005 -567.39672852 207.02148438 C-575.0758866 215.17646588 -582.7383952 223.34694955 -590.39672852 231.52148438 C-598.72561439 240.41176962 -607.06231721 249.29452664 -615.41381836 258.16357422 C-622.41983776 265.60523631 -629.40894787 273.06270008 -636.39672852 280.52148438 C-644.7263219 289.41252482 -653.06352363 298.29623488 -661.41601562 307.16577148 C-666.53240481 312.60003365 -671.63920573 318.04320028 -676.74121094 323.4909668 C-680.00203034 326.9715492 -683.26782665 330.4472903 -686.54125977 333.91601562 C-687.23735352 334.65400391 -687.93344727 335.39199219 -688.65063477 336.15234375 C-689.96358551 337.54377257 -691.27730741 338.93447441 -692.59204102 340.32421875 C-693.81159393 341.61694484 -695.01968165 342.92060204 -696.21495247 344.23581219 C-698.39672852 346.52148438 -698.39672852 346.52148438 -700.92675591 348.73865223 C-706.30948271 353.78808347 -709.26470691 357.95429493 -709.63723755 365.41203308 C-709.71963261 368.49517594 -709.67749907 371.56779101 -709.6237793 374.65112305 C-709.63083318 376.35718041 -709.64228248 378.06322434 -709.65776062 379.76922607 C-709.68719252 384.37048049 -709.65562871 388.96948012 -709.61259699 393.57055068 C-709.57806585 398.38990278 -709.60033683 403.20899556 -709.61642456 408.02839661 C-709.63829348 417.14090054 -709.60953208 426.25250351 -709.56230152 435.36488277 C-709.50138094 447.68793771 -709.51923395 460.01086695 -709.53253174 472.33402348 C-709.55139744 491.730366 -709.46550393 511.12479604 -709.39672852 530.52148438 C-741.07672852 530.52148438 -772.75672852 530.52148438 -805.39672852 530.52148438 C-805.39672852 356.94148437 -805.39672852 183.36148437 -805.39672852 4.52148438 C-773.71672852 4.52148438 -742.03672852 4.52148438 -709.39672852 4.52148438 C-709.06672852 73.82148437 -708.73672852 143.12148437 -708.39672852 214.52148438 C-703.39429269 209.51904855 -698.75378745 204.85471979 -694.20922852 199.55273438 C-691.46773528 196.48037127 -688.51462695 193.63103283 -685.58422852 190.74023438 C-683.5995251 188.72717805 -681.73575935 186.66702035 -679.89672852 184.52148438 C-676.64508224 180.72789705 -673.13959757 177.2475579 -669.58422852 173.74023438 C-667.5995251 171.72717805 -665.73575935 169.66702035 -663.89672852 167.52148438 C-660.64508224 163.72789705 -657.13959757 160.2475579 -653.58422852 156.74023438 C-651.5995251 154.72717805 -649.73575935 152.66702035 -647.89672852 150.52148438 C-644.64628201 146.72929678 -641.14223282 143.25012907 -637.58813477 139.74414062 C-634.97571784 137.09446998 -632.56370231 134.30975635 -630.14282227 131.48632812 C-627.67191462 128.70586606 -625.01505912 126.1303022 -622.36547852 123.52148438 C-620.45686397 121.58257436 -618.669623 119.58448887 -616.89672852 117.52148438 C-614.49996264 114.73252044 -612.01713461 112.10157653 -609.39672852 109.52148438 C-606.79690668 106.96158303 -604.33404454 104.35368897 -601.95922852 101.58398438 C-598.68542199 97.77324374 -595.1630888 94.27070273 -591.58813477 90.74414062 C-588.97571784 88.09446998 -586.56370231 85.30975635 -584.14282227 82.48632812 C-581.67191462 79.70586606 -579.01505912 77.1303022 -576.36547852 74.52148438 C-574.45686397 72.58257436 -572.669623 70.58448887 -570.89672852 68.52148438 C-568.49996264 65.73252044 -566.01713461 63.10157653 -563.39672852 60.52148438 C-560.79690668 57.96158303 -558.33404454 55.35368897 -555.95922852 52.58398438 C-552.68167626 48.76888369 -549.15750558 45.26107191 -545.57250977 41.73632812 C-543.62618386 39.75505921 -541.85273168 37.7225393 -540.08422852 35.58398438 C-531.75246489 25.97188093 -521.61328663 19.25809934 -510.39672852 13.52148438 C-509.45571289 13.03808594 -508.51469727 12.5546875 -507.54516602 12.05664062 C-492.43758912 5.05608739 -475.64003389 3.91948117 -459.24243164 4.00390625 C-457.42645716 3.99846571 -455.6104871 3.99133238 -453.79452515 3.98266602 C-448.93130911 3.96466938 -444.06843825 3.97139779 -439.20521736 3.98418236 C-434.08329572 3.99442204 -428.96140053 3.98488778 -423.83947754 3.9786377 C-415.25271374 3.9713981 -406.6660884 3.98085692 -398.0793457 4 C-388.17930202 4.02181723 -378.27958731 4.01466731 -368.37955141 3.99269438 C-359.83717693 3.97450101 -351.29490101 3.97199961 -342.75251341 3.98244905 C-337.66849595 3.98865525 -332.58463289 3.98959818 -327.50062561 3.9763031 C-322.7265351 3.9646856 -317.95286682 3.97287726 -313.17882156 3.99588013 C-311.43584008 4.00113346 -309.69282257 3.99971188 -307.9498558 3.99082947 C-293.79260398 3.92537208 -282.17682533 5.42856505 -271.39672852 15.52148438 C-270.83211914 16.04484375 -270.26750977 16.56820312 -269.68579102 17.10742188 C-259.53196012 27.67359108 -259.68451952 40.66413756 -259.79545593 54.33905029 C-259.79327312 56.34581379 -259.78889074 58.35257588 -259.7825101 60.35933042 C-259.7713685 65.85076429 -259.79127662 71.34170746 -259.81640041 76.83307886 C-259.83804214 82.76339309 -259.83068235 88.69368082 -259.82688904 94.62402344 C-259.82410003 105.5591275 -259.84349966 116.49405376 -259.87359344 127.42911298 C-259.90114006 137.52478161 -259.91725221 147.62039759 -259.9223423 157.7161026 C-259.922686 158.38626957 -259.9230297 159.05643653 -259.92338381 159.74691159 C-259.92507556 163.15058576 -259.92658245 166.55426 -259.92801819 169.95793429 C-259.93851006 194.04328842 -259.97216833 218.1285597 -260.01953125 242.21386719 C-260.06547999 265.60709188 -260.10088501 289.00029388 -260.12207031 312.39355469 C-260.12272794 313.11509943 -260.12338557 313.83664418 -260.12406313 314.58005392 C-260.13065594 321.82634388 -260.13703498 329.07263401 -260.14325743 336.3189243 C-260.15593725 351.07941835 -260.17004351 365.83991093 -260.18501282 380.60040283 C-260.18569927 381.27901199 -260.18638572 381.95762115 -260.18709297 382.65679422 C-260.23306795 427.94505915 -260.31239488 473.23327641 -260.39672852 518.52148438 C-258.44753464 518.28751217 -258.44753464 518.28751217 -256.39672852 517.52148438 C-254.89165965 514.7652599 -253.67060417 512.14981866 -252.49047852 509.25585938 C-251.94895897 507.97877357 -251.94895897 507.97877357 -251.39649963 506.67588806 C-250.21536377 503.88029132 -249.05602576 501.07619945 -247.89672852 498.27148438 C-247.07956138 496.32539245 -246.2611119 494.3798385 -245.44140625 492.43481445 C-243.07401059 486.80493008 -240.73308809 481.16430272 -238.39672852 475.52148438 C-237.82815259 474.15271912 -237.25933503 472.7840542 -236.69018555 471.41552734 C-234.81049643 466.89246714 -232.93557032 462.36754026 -231.07299805 457.83740234 C-226.54421781 446.82670023 -221.90991344 435.86145099 -217.27172852 424.89648438 C-210.93277624 409.90748051 -204.6140835 394.910351 -198.33422852 379.89648438 C-197.96496246 379.01375854 -197.59569641 378.13103271 -197.21524048 377.22155762 C-194.60805071 370.9886258 -192.00221287 364.75512924 -189.39672852 358.52148438 C-186.41851639 351.39608497 -183.43967357 344.27095011 -180.45922852 337.14648438 C-180.08949921 336.26265076 -179.7197699 335.37881714 -179.33883667 334.46820068 C-173.15737196 319.69502626 -166.93521233 304.93926608 -160.69924927 290.18902588 C-154.90327903 276.47833513 -149.13724711 262.75548023 -143.39672852 249.02148438 C-136.86549283 233.39572471 -130.2939787 217.78742225 -123.69897461 202.18847656 C-117.90310339 188.47796603 -112.13716821 174.75529147 -106.39672852 161.02148438 C-99.86787392 145.40142139 -93.29951102 129.79848272 -86.70602417 114.20559692 C-81.14438577 101.05163588 -75.61331474 87.88530312 -70.10800171 74.70767212 C-67.20537152 67.76250308 -64.29598173 60.82016498 -61.3848877 53.87854004 C-60.73873969 52.33728349 -60.09297191 50.79586747 -59.44763184 49.25427246 C-57.5033596 44.60980902 -55.54739589 39.97049359 -53.58422852 35.33398438 C-53.12282471 34.23046631 -52.6614209 33.12694824 -52.18603516 31.98999023 C-46.69354686 19.09017301 -39.35370459 8.14431119 -26.02563477 2.36914062 C-17.64027386 -0.5630821 -8.77391386 -0.07377209 0 0 Z M345.31811523 119.15429688 C333.99603328 134.78341228 335.1672955 153.24630343 335.21508789 171.64550781 C335.21101764 174.2815712 335.20578068 176.91760931 335.19915771 179.55366516 C335.18588893 185.94131302 335.18866677 192.32885454 335.19739564 198.71650639 C335.2041966 203.91012653 335.20507854 209.10371707 335.20182419 214.29734039 C335.20136449 215.03912848 335.20090479 215.78091656 335.20043116 216.54518308 C335.1994719 218.0524973 335.19849926 219.55981151 335.19751339 221.06712571 C335.18898021 235.16590124 335.19876221 249.26461803 335.21491449 263.36338392 C335.22832691 275.44459648 335.22597795 287.52572258 335.2121582 299.60693359 C335.19608484 313.66467658 335.18979233 327.72236829 335.19899499 341.78011918 C335.19995057 343.28037659 335.20089368 344.780634 335.20182419 346.28089142 C335.20228701 347.01890013 335.20274984 347.75690884 335.20322669 348.51728146 C335.20581049 353.70299831 335.20145903 358.88868245 335.19438553 364.07439423 C335.18506836 371.05783226 335.19175029 378.04110458 335.2090683 385.0245266 C335.21302891 387.58430142 335.21190642 390.14409002 335.2052803 392.70385933 C335.19705859 396.20304602 335.20739456 399.70171294 335.22232056 403.2008667 C335.21562839 404.2088537 335.20893623 405.2168407 335.20204127 406.25537276 C335.26202118 413.52595891 336.09070207 420.80621585 340.25170898 426.95898438 C340.82147461 427.47460938 341.39124023 427.99023438 341.97827148 428.52148438 C342.54288086 429.05773437 343.10749023 429.59398437 343.68920898 430.14648438 C348.16460235 433.36146083 352.1980851 433.77427198 357.62666321 433.78890991 C358.32201729 433.79344103 359.01737136 433.79797214 359.73379678 433.80264056 C362.0579508 433.81527455 364.38187017 433.81366479 366.70605469 433.81201172 C368.3753947 433.81799807 370.04473194 433.82480386 371.71406555 433.83236694 C376.24777184 433.85003488 380.78140262 433.85472299 385.31514001 433.85599852 C388.15341679 433.85742156 390.99167448 433.86169432 393.82994652 433.86699295 C403.74927357 433.88550405 413.66854688 433.89366323 423.58789062 433.89208984 C432.80304295 433.89089191 442.01795974 433.91192283 451.23305255 433.94357717 C459.16455911 433.96984139 467.09598931 433.98045273 475.02753896 433.97917902 C479.75534951 433.97867186 484.48295128 433.9842165 489.21071815 434.00553513 C493.66859742 434.0250861 498.1260726 434.02492844 502.58396721 434.01050186 C504.20755233 434.00843255 505.83116385 434.01300055 507.45470428 434.02522278 C521.18691633 434.12178306 534.49521408 432.58451786 546.60327148 425.52148438 C545.25775825 421.2681321 543.63365665 417.26916674 541.79077148 413.20898438 C527.4494351 380.23228713 526.71733733 342.16872552 539.42749023 308.52148438 C548.30119906 286.23861555 563.88094054 258.61797739 585.57182026 246.413908 C588.89367873 244.40322383 591.20073158 242.87237974 592.33968163 239.0501442 C592.61081808 235.93087057 592.62711299 232.89860153 592.55908203 229.76806641 C592.56506912 228.59010498 592.57105621 227.41214355 592.57722473 226.19848633 C592.58526464 222.97836 592.55771214 219.76097893 592.51321769 216.541224 C592.47421769 213.16310294 592.47846864 209.78501486 592.47724915 206.40670776 C592.46893704 200.73217409 592.43039093 195.05850168 592.37158203 189.38427734 C592.30390883 182.8392507 592.2739552 176.29496032 592.26660699 169.74960434 C592.25870732 162.76306699 592.2278736 155.77678578 592.18781304 148.79036474 C592.17752561 146.78618939 592.1709404 144.78202829 592.16498375 142.77783585 C592.14901998 139.02946986 592.11295774 135.2818431 592.07080078 131.53369141 C592.06901825 130.43108978 592.06723572 129.32848816 592.06539917 128.19247437 C591.94964062 120.5994565 591.02363056 113.72425681 585.91577148 107.70898438 C585.4787793 107.16628906 585.04178711 106.62359375 584.59155273 106.06445312 C579.07876744 101.78635844 572.89105775 101.07940619 566.17390442 101.13380432 C565.36361446 101.12841878 564.55332449 101.12303325 563.71848029 101.11748451 C561.02342535 101.10326206 558.32886557 101.1102945 555.63378906 101.11743164 C553.69313159 101.11172492 551.75247747 101.10475949 549.81182861 101.09663391 C544.55328417 101.07871644 539.29490674 101.0798688 534.03634095 101.0855763 C529.63812175 101.08867157 525.23993446 101.0825716 520.84171981 101.07653755 C510.45841761 101.06249724 500.07519768 101.06404825 489.69189453 101.07543945 C479.00256684 101.08690775 468.31349044 101.07286547 457.62419587 101.04604298 C448.42898512 101.02383878 439.23385296 101.0172596 430.03861731 101.02311939 C424.55475995 101.02648038 419.07106345 101.02413161 413.58722878 101.00686836 C408.42509501 100.99132708 403.26333108 100.99543415 398.10121155 101.01417351 C396.21513626 101.01784022 394.32903314 101.01480742 392.44298363 101.00428772 C373.97063932 100.90918774 357.68829989 104.12793761 345.31811523 119.15429688 Z " fill="#002B37" transform="translate(851.396728515625,18.478515625)"/>
<path d="M0 0 C1.42798423 2.42665977 2.64282409 4.76305388 3.8125 7.3125 C4.33589966 8.44896973 4.33589966 8.44896973 4.86987305 9.60839844 C20.1001691 43.78165818 21.31143435 82.9941051 8 118 C0.30000812 137.17720431 -10.61456051 153.25492452 -25 168 C-25.639375 168.70125 -26.27875 169.4025 -26.9375 170.125 C-37.57984778 181.5013028 -51.00717451 188.88856696 -64.609375 196.11328125 C-69.18731291 198.5456111 -73.67480622 201.09244611 -78.125 203.75 C-85.53867021 208.1617771 -93.00912621 212.47097802 -100.5 216.75 C-101.09995789 217.0928302 -101.69991577 217.4356604 -102.3180542 217.78887939 C-111.79501479 223.201069 -121.3130934 228.53698298 -130.84570312 233.85058594 C-138.93623109 238.37357633 -146.94326695 243.02980547 -154.93530273 247.72412109 C-163.58050134 252.78866709 -172.30980149 257.69331204 -181.06835938 262.55859375 C-182.06287109 263.11160156 -183.05738281 263.66460937 -184.08203125 264.234375 C-184.96093018 264.72131836 -185.8398291 265.20826172 -186.74536133 265.70996094 C-188.53905343 266.7362597 -190.28052815 267.85368544 -192 269 C-193.32 269 -194.64 269 -196 269 C-214.02190575 233.68804255 -218.05742349 194.98492024 -206 157 C-191.0995316 114.67641664 -161.55991162 89.68773739 -123.453125 68.59765625 C-117.31342778 65.19212917 -111.24199335 61.67933899 -105.1875 58.125 C-96.3071299 52.91376485 -87.3853453 47.7815092 -78.4375 42.6875 C-70.18808083 37.98895307 -61.97875221 33.24058025 -53.859375 28.3203125 C-45.6989342 23.39133553 -37.44048868 18.62507892 -29.18994141 13.84912109 C-27.03129096 12.59781094 -24.87477045 11.34282038 -22.72021484 10.08447266 C-19.54840463 8.23365819 -16.36903897 6.39652802 -13.1875 4.5625 C-11.71990234 3.70156738 -11.71990234 3.70156738 -10.22265625 2.82324219 C-9.31773437 2.30536133 -8.4128125 1.78748047 -7.48046875 1.25390625 C-6.28780396 0.56276733 -6.28780396 0.56276733 -5.07104492 -0.14233398 C-3 -1 -3 -1 0 0 Z " fill="#FE5400" transform="translate(1594,175)"/>
<path d="M0 0 C3.46872452 2.86816923 6.75626165 5.88102081 10 9 C10.68835938 9.64839844 11.37671875 10.29679687 12.0859375 10.96484375 C16.64804156 15.37367554 20.61432576 20.13385861 24.58203125 25.078125 C27.12598189 28.15223659 29.78121861 31.08169665 32.5 34 C36.78985806 38.60974194 40.80412936 43.37785769 44.75390625 48.28515625 C47.0883059 51.10673495 49.51990598 53.80590712 52 56.5 C55.27418423 60.05670244 58.40642433 63.67161811 61.4375 67.4375 C64.65943101 71.43223986 68.00655495 75.24554349 71.5 79 C75.78955113 83.61004336 79.80410672 88.37782956 83.75390625 93.28515625 C86.0883059 96.10673495 88.51990598 98.80590712 91 101.5 C95.09351091 105.94727112 98.92442499 110.54717463 102.71875 115.25 C105.86194258 119.03905407 109.20158595 122.63269352 112.53515625 126.25390625 C114.92707297 128.91875166 117.19254884 131.64831825 119.4375 134.4375 C122.6594418 138.43225324 126.00666084 142.2454314 129.5 146 C134.58674659 151.46978207 139.31640545 157.18070416 144 163 C145.01780854 164.21088229 146.03803358 165.41974538 147.0625 166.625 C149 169 149 169 149 170 C136.79409361 170.09324507 124.58827386 170.16403902 112.38208199 170.20724869 C106.71243713 170.22800152 101.04303841 170.25609076 95.37353516 170.30175781 C89.88808699 170.34565889 84.40287351 170.36922925 78.91726303 170.37950897 C76.83878772 170.38682176 74.76032324 170.4010982 72.68194962 170.42292023 C42.86363249 170.72315555 18.83131954 162.97585115 -3.0234375 142.0234375 C-7.8920782 137.18693304 -12.23938977 131.8888953 -16.62890625 126.62207031 C-18.59174165 124.29994096 -20.63600152 122.05632646 -22.6875 119.8125 C-25.71712868 116.47772886 -28.60608092 113.06712361 -31.4375 109.5625 C-35.29825137 104.788597 -39.37437075 100.26611572 -43.53125 95.75 C-46.72881296 92.18815771 -49.71388343 88.47434167 -52.71875 84.75 C-55.86194258 80.96094593 -59.20158595 77.36730648 -62.53515625 73.74609375 C-64.92707297 71.08124834 -67.19254884 68.35168175 -69.4375 65.5625 C-72.65943101 61.56776014 -76.00655495 57.75445651 -79.5 54 C-83.78955113 49.38995664 -87.80410672 44.62217044 -91.75390625 39.71484375 C-94.87052592 35.9477991 -98.18885001 32.38085819 -101.5 28.78515625 C-104.86542671 25.03586056 -108.03253088 21.14165354 -111.1875 17.21484375 C-112.96126357 14.97246433 -112.96126357 14.97246433 -115 13 C-114.91481158 9.93321703 -113.91679207 8.91431478 -111.76953125 6.703125 C-80.07448498 -19.59078393 -34.37108869 -25.75203893 0 0 Z " fill="#FF5500" transform="translate(338,379)"/>
<path d="M0 0 C1.44215715 -0.01151391 2.88427187 -0.03195689 4.32617188 -0.06152344 C6.41671519 -0.10437323 8.50599492 -0.12039145 10.59692383 -0.13061523 C11.84513916 -0.14519775 13.09335449 -0.15978027 14.37939453 -0.17480469 C19.39038566 0.50207118 22.41761672 2.47099534 25.54174805 6.42578125 C27.44453893 10.57177704 28.68640202 14.82157973 29.92895508 19.20532227 C30.22536896 20.23673843 30.52178284 21.2681546 30.82717896 22.33082581 C35.46582901 38.70659452 39.55178641 55.23596173 43.73364258 71.73266602 C45.23370455 77.64716818 46.73653727 83.56094789 48.24487686 89.4733448 C48.84219336 91.81983146 49.435235 94.167371 50.02804565 96.51499939 C50.38918753 97.93322671 50.75051513 99.35140675 51.11206055 100.76953125 C51.42625946 102.00952377 51.74045837 103.2495163 52.06417847 104.52708435 C52.58427429 107.18232994 52.58427429 107.18232994 53.85864258 108.29516602 C54.13790588 107.20681458 54.41716919 106.11846313 54.70489502 104.99713135 C57.34807384 94.69841058 59.99579667 84.40086723 62.64787674 74.10443497 C64.01091562 68.81198049 65.37239713 63.51913592 66.73022461 58.2253418 C68.04271373 53.10855425 69.35941756 47.99286774 70.67894745 42.87789154 C71.17953889 40.9344352 71.67865674 38.99059864 72.17621613 37.04636383 C79.92479762 6.78047961 79.92479762 6.78047961 84.85864258 2.29516602 C90.65120671 -0.61307481 96.83293808 -0.04009495 103.15087891 -0.02050781 C105.28640833 -0.01734839 107.42054977 -0.04083193 109.5559082 -0.06616211 C110.92634918 -0.06843561 112.29679385 -0.06913836 113.66723633 -0.06811523 C114.90272217 -0.07109619 116.13820801 -0.07407715 117.41113281 -0.07714844 C122.25030777 0.44545916 125.53924073 2.08571433 129.10864258 5.35766602 C133.76405827 13.17211378 133.14690578 22.85010835 133.11743164 31.66430664 C133.1226886 33.61750069 133.1226886 33.61750069 133.12805176 35.6101532 C133.13710208 39.15354646 133.13366218 42.69682212 133.12729359 46.24021721 C133.12219519 49.96577117 133.12693563 53.69131572 133.13006592 57.41687012 C133.13369445 63.67075388 133.1289358 69.92459025 133.11938477 76.1784668 C133.10850236 83.38690759 133.11202872 90.59523521 133.12303758 97.80367327 C133.13214229 104.01630379 133.13338022 110.22890043 133.12816024 116.44153547 C133.12505799 120.14173199 133.12458281 123.84187547 133.13123322 127.54206848 C133.13813569 131.67012121 133.12854214 135.79798183 133.11743164 139.92602539 C133.1214801 141.13671188 133.12552856 142.34739838 133.12969971 143.59477234 C133.03844076 161.96430157 133.03844076 161.96430157 127.85864258 168.29516602 C122.41964599 172.19374748 117.33728863 172.07646615 110.85864258 171.29516602 C105.8131387 168.99370811 103.87952936 166.4005642 101.85864258 161.29516602 C100.9821305 158.34964178 100.72494917 155.70724779 100.70042419 152.63812256 C100.69063538 151.70706696 100.68084656 150.77601135 100.67076111 149.81674194 C100.66500565 148.80254181 100.65925018 147.78834167 100.65332031 146.7434082 C100.64342072 145.66993134 100.63352112 144.59645447 100.62332153 143.490448 C100.59172536 139.94100147 100.56695642 136.39154155 100.54223633 132.84204102 C100.52166519 130.38152722 100.50066867 127.92101694 100.47926331 125.46051025 C100.42405923 118.98326468 100.37464254 112.5059873 100.32641602 106.02868652 C100.2761889 99.41956755 100.22050914 92.81049478 100.1652832 86.20141602 C100.05772195 73.23270575 99.95608728 60.26395604 99.85864258 47.29516602 C99.72833271 47.83739744 99.59802284 48.37962887 99.46376419 48.93829155 C96.28310477 62.1710269 93.09400553 75.40170383 89.89595413 88.63024712 C88.34961215 95.02769949 86.80602424 101.42578982 85.26879883 107.82543945 C83.7840445 114.00619412 82.2919666 120.18513924 80.79488373 126.36291885 C80.2261742 128.71527793 79.66006646 131.06826764 79.0966568 133.4219017 C78.3045582 136.72887819 77.50307614 140.03345206 76.69946289 143.33764648 C76.47072479 144.30222275 76.24198669 145.26679901 76.00631714 146.26060486 C73.62357274 155.97214201 71.51994812 164.51385123 62.85864258 170.29516602 C57.84008044 172.80444708 49.87046583 172.09661729 44.55395508 170.68188477 C39.11631986 167.93889989 36.03107574 162.45530066 33.97791481 156.92128372 C33.20588377 154.33088231 32.52077159 151.73299494 31.86767578 149.11010742 C31.6175665 148.14999567 31.36745722 147.18988392 31.10976887 146.20067787 C30.3431192 143.23603101 29.59776418 140.26678444 28.85864258 137.29516602 C28.63563351 136.40691887 28.41262444 135.51867172 28.18285751 134.603508 C26.65390735 128.49703112 25.178988 122.37821233 23.71411133 116.25610352 C23.2545519 114.34649684 22.79469124 112.43696265 22.33454895 110.52749634 C21.14350175 105.58162885 19.95634883 100.63483538 18.7701416 95.68780518 C17.5552386 90.6240706 16.33670373 85.56121024 15.1184082 80.49829102 C13.75107229 74.81532666 12.38408993 69.13227943 11.01982117 63.44857788 C10.81416031 62.59189011 10.60849945 61.73520233 10.39660645 60.85255432 C10.01394049 59.25827395 9.63142769 57.6639568 9.24909973 56.06959534 C8.46616496 52.80783257 7.67564154 49.54855477 6.85864258 46.29516602 C6.85625422 46.86500969 6.85386587 47.43485336 6.85140514 48.02196503 C6.79217345 61.91130659 6.71638428 75.80047372 6.62292767 89.6896286 C6.57803297 96.40643236 6.53860392 103.12318386 6.51220703 109.84008789 C6.48616921 116.32410558 6.44576263 122.80789007 6.39545631 129.29176331 C6.37879099 131.76360673 6.36727465 134.23549049 6.36102867 136.7073822 C6.35138433 140.17374023 6.32331943 143.63950208 6.29101562 147.10571289 C6.29245071 148.1242334 6.2938858 149.14275391 6.29536438 150.19213867 C6.20331386 157.19152734 5.45134667 163.13530791 0.85864258 168.73266602 C-3.32212193 171.99888829 -8.01881967 171.74853498 -13.11791992 171.70532227 C-17.04985164 171.17192068 -18.99692733 169.86380924 -21.83666992 167.19360352 C-24.84904782 162.8103231 -25.39214401 158.19957757 -25.40205383 152.99536133 C-25.40913864 151.7504895 -25.41622345 150.50561768 -25.42352295 149.22302246 C-25.4212295 147.85644495 -25.41871985 146.48986778 -25.41601562 145.12329102 C-25.42036613 143.67402891 -25.42555041 142.2247691 -25.4315033 140.7755127 C-25.44486647 136.84994446 -25.44547508 132.92447265 -25.44294 128.99888611 C-25.44186871 125.71850945 -25.44675757 122.43815219 -25.45154542 119.15777969 C-25.4626308 111.41840407 -25.46308312 103.67907698 -25.45703125 95.93969727 C-25.45098812 87.96097175 -25.46331324 79.98242242 -25.48460132 72.00372696 C-25.50222264 65.14665733 -25.50821794 58.28964377 -25.50496358 51.43255234 C-25.50315181 47.34003658 -25.50577649 43.24764658 -25.51967812 39.15515137 C-25.53226094 35.3071631 -25.53030823 31.45944954 -25.51726723 27.61146545 C-25.51490307 26.20137946 -25.51763041 24.79127411 -25.52589035 23.38121033 C-25.53637182 21.4524892 -25.52644672 19.52368969 -25.51557922 17.5949707 C-25.51574697 16.51689148 -25.51591471 15.43881226 -25.51608753 14.32806396 C-25.07373459 10.74785704 -24.00297865 8.37244575 -22.14135742 5.29516602 C-15.00570195 -0.20523507 -8.61736386 0.04792314 0 0 Z " fill="#FF5500" transform="translate(1836.141357421875,343.704833984375)"/>
<path d="M0 0 C8.5536405 7.31909445 13.46811851 14.65491958 15.27734375 25.89453125 C15.57021907 33.36870945 13.0777512 37.66981964 8.21484375 43.26953125 C3.78107474 45.72225453 -0.78793622 45.99645902 -5.72265625 44.89453125 C-11.10647544 41.33526696 -13.60321943 37.12830421 -16.59765625 31.51953125 C-20.66589434 24.27403919 -24.4756262 18.13995146 -32.37890625 14.7578125 C-41.79022689 12.3280206 -54.05952797 12.34139375 -62.84375 16.6953125 C-67.68894304 19.78777458 -70.84110689 23.45894421 -72.72265625 28.89453125 C-73.01492676 33.67401375 -72.24156037 37.02411144 -69.78515625 41.14453125 C-61.80395564 49.23689064 -49.34250074 51.12712716 -38.796875 54.03808594 C5.14159182 66.27888499 5.14159182 66.27888499 16.71484375 83.58203125 C23.6522739 96.23841939 23.52658314 110.79021014 20.3125 124.46875 C16.52738646 136.99533331 8.42108968 146.66427189 -2.7265625 153.328125 C-15.74515575 160.13445602 -27.73863474 162.28948533 -42.28515625 162.26953125 C-43.28418976 162.26871552 -43.28418976 162.26871552 -44.30340576 162.2678833 C-63.04784107 162.1974388 -79.57951215 158.57694958 -93.5390625 145.17578125 C-101.77354087 136.57303462 -107.81907325 126.12699144 -107.97265625 114.01953125 C-108.01132813 112.19808594 -108.01132813 112.19808594 -108.05078125 110.33984375 C-107.57602222 105.35487389 -105.86986305 102.90183478 -102.16015625 99.64453125 C-97.69569444 96.43927662 -94.11423878 96.37971 -88.72265625 96.89453125 C-81.53682541 99.92854871 -78.84149135 106.4768801 -75.91015625 113.20703125 C-71.48299534 122.92345181 -67.02801813 129.92920722 -56.72265625 133.89453125 C-46.91391245 137.16411252 -33.28011045 136.0659936 -24.1484375 131.51953125 C-19.00228105 128.07218651 -14.05514115 123.11279412 -12.72265625 116.89453125 C-11.98001602 110.11646562 -12.41934475 104.38660284 -16.72265625 98.89453125 C-25.60026162 89.9303151 -41.34612604 87.7622157 -53.09765625 84.69580078 C-69.7054915 80.33336072 -88.3059083 74.93131943 -98.51171875 59.9765625 C-105.39577766 48.14042249 -107.18289796 33.75069309 -103.66015625 20.39453125 C-99.13893643 8.37980822 -91.20236752 0.30344675 -80.09765625 -5.85546875 C-55.71707224 -16.85282698 -21.67437521 -16.76110221 0 0 Z " fill="#FF5500" transform="translate(2160.72265625,353.10546875)"/>
<path d="M0 0 C4.86820055 2.04976865 6.89209803 4.78600684 9.16466522 9.51223755 C10.84643693 14.52082645 10.51697261 19.70413555 10.45410156 24.93359375 C10.45468567 26.21247971 10.45526978 27.49136566 10.45587158 28.80900574 C10.45701322 32.29418677 10.43359449 35.77881043 10.40557575 39.26386261 C10.38046933 42.91399769 10.37821286 46.56414736 10.37347412 50.21435547 C10.36107133 57.11678351 10.32828665 64.01895632 10.28807616 70.92127228 C10.24327407 78.78342443 10.22135028 86.64558915 10.20129442 94.5078373 C10.15955129 110.67204062 10.08925225 126.83598768 10 143 C11.37396187 142.99000725 11.37396187 142.99000725 12.77568054 142.97981262 C21.41247167 142.91967432 30.04919237 142.87401172 38.68614483 142.84456348 C43.12638476 142.82891483 47.56645152 142.80769123 52.0065918 142.77368164 C56.29246025 142.74105956 60.57816224 142.72314096 64.86414528 142.71536827 C66.49840731 142.70982987 68.13266035 142.69901465 69.76685143 142.68280983 C72.05790186 142.66099728 74.34826654 142.65803461 76.6394043 142.65942383 C77.94290329 142.65276199 79.24640228 142.64610016 80.58940125 142.63923645 C85.34132312 143.14188139 87.83820928 144.90275321 91.25 148.125 C93.64045491 152.05217592 94.18025265 155.43098712 94 160 C92.84615564 164.39903162 91.57532624 166.9712477 87.75 169.375 C82.12669936 172.45442654 75.30000339 172.14928547 69.05200195 172.14526367 C68.28996964 172.14862228 67.52793732 172.1519809 66.74281311 172.15544128 C64.24128557 172.1648841 61.73982547 172.16689124 59.23828125 172.16796875 C57.48341343 172.17118671 55.72854587 172.17455118 53.97367859 172.17805481 C50.29958475 172.18402997 46.62551437 172.18589645 42.95141602 172.18530273 C38.27254966 172.18520138 33.59383596 172.19883333 28.91500568 172.21607494 C25.29016954 172.2272649 21.66536944 172.22921978 18.04051781 172.22869301 C16.31716576 172.22986339 14.59381249 172.23423141 12.87047768 172.24202538 C-10.75542182 172.3388492 -10.75542182 172.3388492 -18.0625 168.3125 C-23.99790185 161.22831069 -23.43573726 153.66624643 -23.40405273 144.83813477 C-23.40976123 143.40181956 -23.41672734 141.9655089 -23.42485046 140.52920532 C-23.44274411 136.64277718 -23.44162071 132.75657529 -23.43590808 128.87011838 C-23.43281074 125.61969544 -23.43891473 122.36931561 -23.44494683 119.11889881 C-23.45897796 111.44796288 -23.45744253 103.77713836 -23.44604492 96.10620117 C-23.43456463 88.20525636 -23.44864094 80.30465104 -23.4754414 72.40375096 C-23.49762666 65.60776307 -23.50422944 58.81188153 -23.49836498 52.01586002 C-23.495001 47.96238537 -23.49737316 43.90912831 -23.51461601 39.85568428 C-23.53012838 36.04288921 -23.52608265 32.23059554 -23.50731087 28.41781998 C-23.5036368 27.02308813 -23.50669889 25.62831878 -23.51719666 24.2336216 C-23.58095887 15.05794797 -23.23691286 8.34555165 -16.5625 1.5 C-11.07163739 -0.81194215 -5.86691201 -0.71748223 0 0 Z " fill="#FF5500" transform="translate(1641,341)"/>
<path d="M0 0 C0.87365204 -0.00287018 1.74730408 -0.00574036 2.64743042 -0.00869751 C4.48810477 -0.01073345 6.32880098 -0.00523653 8.16943359 0.00732422 C10.98974723 0.02342357 13.80863624 0.00744003 16.62890625 -0.01171875 C18.419274 -0.00973699 20.20964086 -0.00589471 22 0 C22.84378204 -0.00607269 23.68756409 -0.01214539 24.55691528 -0.0184021 C30.40818127 0.05213309 30.40818127 0.05213309 32.62863159 1.72738647 C33.8671875 3.3984375 33.8671875 3.3984375 33.6171875 6.5234375 C32.8671875 9.3984375 32.8671875 9.3984375 31.8671875 10.3984375 C29.06907822 10.54626789 26.29251114 10.63349066 23.4921875 10.6796875 C22.23269287 10.70730164 22.23269287 10.70730164 20.94775391 10.73547363 C17.3396523 10.8144281 13.73135595 10.88198447 10.12304688 10.95068359 C7.49599639 11.00229652 4.86911251 11.05959276 2.2421875 11.1171875 C1.00782959 11.13755066 1.00782959 11.13755066 -0.25146484 11.1583252 C-3.99913863 10.8860741 -3.99913863 10.8860741 -7.1328125 12.3984375 C-7.23274782 14.4589906 -7.26362156 16.5229634 -7.265625 18.5859375 C-7.26691406 19.84148438 -7.26820312 21.09703125 -7.26953125 22.390625 C-7.26743652 23.04772461 -7.2653418 23.70482422 -7.26318359 24.38183594 C-7.25783484 26.39005085 -7.26312941 28.39804209 -7.26953125 30.40625 C-7.26759766 32.28957031 -7.26759766 32.28957031 -7.265625 34.2109375 C-7.26449707 35.37238281 -7.26336914 36.53382813 -7.26220703 37.73046875 C-7.43618724 40.31907034 -7.43618724 40.31907034 -6.1328125 41.3984375 C-3.98722423 41.48619355 -1.83876829 41.50538969 0.30859375 41.49609375 C1.61376953 41.49287109 2.91894531 41.48964844 4.26367188 41.48632812 C5.6523444 41.47797151 7.04101627 41.46950655 8.4296875 41.4609375 C9.82226406 41.45592416 11.21484231 41.45136097 12.60742188 41.44726562 C16.0273862 41.43543184 19.44726594 41.4189463 22.8671875 41.3984375 C23.11734623 37.98200991 23.11734623 37.98200991 22.8671875 34.3984375 C19.78087524 32.34089599 18.99997492 32.14020371 15.48828125 32.0546875 C14.64974609 32.02503906 13.81121094 31.99539063 12.94726562 31.96484375 C11.18164309 31.92047482 9.41601807 31.87620442 7.65039062 31.83203125 C6.81314453 31.80238281 5.97589844 31.77273438 5.11328125 31.7421875 C4.34685303 31.72349609 3.5804248 31.70480469 2.79077148 31.68554688 C0.8671875 31.3984375 0.8671875 31.3984375 -1.1328125 29.3984375 C-0.8828125 25.8359375 -0.8828125 25.8359375 -0.1328125 22.3984375 C4.17391692 20.24507279 9.94043755 21.21258272 14.72558594 21.21313477 C16.85892615 21.21094598 18.99175116 21.19277831 21.125 21.17382812 C22.47656073 21.17089456 23.82812392 21.16890952 25.1796875 21.16796875 C26.41332031 21.16385986 27.64695312 21.15975098 28.91796875 21.15551758 C31.8671875 21.3984375 31.8671875 21.3984375 33.8671875 23.3984375 C34.12597656 26.07226562 34.12597656 26.07226562 34.1328125 29.4296875 C34.13667969 31.23373047 34.13667969 31.23373047 34.140625 33.07421875 C34.13289063 34.33621094 34.12515625 35.59820313 34.1171875 36.8984375 C34.12878906 38.79142578 34.12878906 38.79142578 34.140625 40.72265625 C34.13804688 41.92535156 34.13546875 43.12804687 34.1328125 44.3671875 C34.13055664 45.47513672 34.12830078 46.58308594 34.12597656 47.72460938 C33.8671875 50.3984375 33.8671875 50.3984375 31.8671875 52.3984375 C30.06584167 52.65913391 30.06584167 52.65913391 27.86401367 52.6730957 C26.62714058 52.68739372 26.62714058 52.68739372 25.36528015 52.70198059 C24.47258926 52.70106918 23.57989838 52.70015778 22.66015625 52.69921875 C21.74261063 52.70350388 20.825065 52.707789 19.87971497 52.71220398 C17.935362 52.71795421 15.99098751 52.71844246 14.04663086 52.71411133 C11.07693477 52.7109611 8.10824398 52.73436781 5.13867188 52.75976562 C3.25000126 52.76203957 1.36132796 52.76274167 -0.52734375 52.76171875 C-1.41396194 52.7709285 -2.30058014 52.78013824 -3.21406555 52.78962708 C-7.97282741 52.75408756 -11.36456641 52.62981101 -15.1328125 49.3984375 C-18.42784379 45.3536548 -18.58688751 41.49476681 -18.56640625 36.46484375 C-18.5716481 35.70928696 -18.57688995 34.95373016 -18.58229065 34.17527771 C-18.58869321 32.5826032 -18.58739675 30.98988129 -18.57885742 29.3972168 C-18.57035 26.97162947 -18.59912484 24.54840171 -18.63085938 22.12304688 C-18.63247179 20.5703132 -18.63189309 19.01757539 -18.62890625 17.46484375 C-18.64014023 16.74591446 -18.65137421 16.02698517 -18.66294861 15.28627014 C-18.59299189 10.18446123 -17.42538697 7.27095606 -14.1328125 3.3984375 C-9.78506437 -0.29271591 -5.43819705 -0.03932735 0 0 Z " fill="#000000" transform="translate(1044.1328125,637.6015625)"/>
<path d="M0 0 C0.89460937 -0.01015137 1.78921875 -0.02030273 2.7109375 -0.03076172 C9.71108844 0.06114115 15.08453333 1.41835 21.125 5.125 C27.82353624 12.00960669 28.62895543 20.10806761 28.6237793 29.29052734 C28.5103313 36.48100831 27.17478865 41.71210575 23.1875 47.75 C16.1544359 54.47048347 9.35526986 55.07213105 -0.125 54.9375 C-1.75888672 54.96070313 -1.75888672 54.96070313 -3.42578125 54.984375 C-11.1610254 54.94696149 -16.68774634 53.7666836 -22.6484375 48.7265625 C-23.09445312 48.17742188 -23.54046875 47.62828125 -24 47.0625 C-24.69222656 46.24652344 -24.69222656 46.24652344 -25.3984375 45.4140625 C-28.93980964 39.70726535 -28.96152924 34.00231156 -28.9375 27.5 C-28.95361328 26.63181641 -28.96972656 25.76363281 -28.98632812 24.86914062 C-28.99192611 17.46300914 -27.42517498 11.42616745 -22.21484375 5.79296875 C-15.69566067 0.2348446 -8.20297498 0.066934 0 0 Z M-16.625 15.4375 C-18.81384676 19.35890825 -18.92302883 22.93235227 -18.9375 27.375 C-18.95425781 28.55964844 -18.97101562 29.74429688 -18.98828125 30.96484375 C-18.49978576 35.63444041 -17.13062981 39.07302298 -13.625 42.25 C-9.33933374 44.79461434 -5.14395711 44.65466087 -0.3125 44.6875 C0.80801758 44.7184375 0.80801758 44.7184375 1.95117188 44.75 C6.81552502 44.78416578 10.23082272 44.25333685 14.375 41.4375 C18.03360417 37.21305239 17.89240052 32.82891031 17.875 27.5 C17.91753906 26.32147461 17.91753906 26.32147461 17.9609375 25.11914062 C17.97496497 20.92843488 17.65731276 18.24586353 14.96875 14.93359375 C10.2412182 10.38405637 5.8545071 11.18522981 -0.4375 11.125 C-1.43587891 11.09599609 -2.43425781 11.06699219 -3.46289062 11.03710938 C-10.91988534 10.93894722 -10.91988534 10.93894722 -16.625 15.4375 Z " fill="#000000" transform="translate(763.625,636.5625)"/>
<path d="M0 0 C0.90298828 -0.01611328 1.80597656 -0.03222656 2.73632812 -0.04882812 C9.85128041 -0.05398015 15.16947124 1.23041417 21.3125 5 C28.25704734 12.13745143 28.82109451 20.75019234 28.71484375 30.27734375 C28.36524935 37.24233979 27.14690078 42.86078015 22.5625 48.3125 C15.32539203 54.53742504 9.12150122 54.54128596 -0.1875 54.625 C-1.77691406 54.66850586 -1.77691406 54.66850586 -3.3984375 54.71289062 C-11.11430153 54.77511533 -16.55345709 53.66417409 -22.4609375 48.56640625 C-22.90695312 48.00824219 -23.35296875 47.45007813 -23.8125 46.875 C-24.27398438 46.31941406 -24.73546875 45.76382813 -25.2109375 45.19140625 C-28.92234906 39.50609109 -28.80378365 34.06776626 -28.8125 27.5 C-28.84923828 26.06043945 -28.84923828 26.06043945 -28.88671875 24.59179688 C-28.91690493 17.22133723 -27.49153028 12.00011698 -22.76171875 6.2890625 C-22.22160156 5.84304688 -21.68148437 5.39703125 -21.125 4.9375 C-20.59261719 4.47601562 -20.06023438 4.01453125 -19.51171875 3.5390625 C-13.3799303 -0.0868915 -6.92359863 -0.02460412 0 0 Z M-16.4375 15.3125 C-18.62634676 19.23390825 -18.73552883 22.80735227 -18.75 27.25 C-18.76675781 28.43464844 -18.78351562 29.61929688 -18.80078125 30.83984375 C-18.31228576 35.50944041 -16.94312981 38.94802298 -13.4375 42.125 C-9.15183374 44.66961434 -4.95645711 44.52966087 -0.125 44.5625 C0.99551758 44.5934375 0.99551758 44.5934375 2.13867188 44.625 C7.00302502 44.65916578 10.41832272 44.12833685 14.5625 41.3125 C18.22110417 37.08805239 18.07990052 32.70391031 18.0625 27.375 C18.10503906 26.19647461 18.10503906 26.19647461 18.1484375 24.99414062 C18.16246497 20.80343488 17.84481276 18.12086353 15.15625 14.80859375 C10.4287182 10.25905637 6.0420071 11.06022981 -0.25 11 C-1.24837891 10.97099609 -2.24675781 10.94199219 -3.27539062 10.91210938 C-10.73238534 10.81394722 -10.73238534 10.81394722 -16.4375 15.3125 Z " fill="#000000" transform="translate(953.4375,636.6875)"/>
<path d="M0 0 C0.74567734 -0.0033284 1.49135468 -0.0066568 2.2596283 -0.01008606 C3.83396793 -0.01514361 5.40831826 -0.01749475 6.98266602 -0.01733398 C9.39682491 -0.01952624 11.81053097 -0.03770957 14.22460938 -0.05664062 C15.75390468 -0.05957359 17.28320217 -0.06155903 18.8125 -0.0625 C19.53647476 -0.06968552 20.26044952 -0.07687103 21.00636292 -0.08427429 C26.11101072 -0.06086428 26.11101072 -0.06086428 28.33984375 2.16796875 C28.58984375 5.16796875 28.58984375 5.16796875 28.33984375 8.16796875 C25.4854596 11.0223529 23.46154919 10.45291538 19.46875 10.51171875 C18.79061752 10.52634155 18.11248505 10.54096436 17.4138031 10.55603027 C15.24337652 10.60258432 13.07304189 10.6367495 10.90234375 10.66796875 C8.04913977 10.709104 5.19658109 10.76278884 2.34375 10.82421875 C0.43831421 10.85225586 0.43831421 10.85225586 -1.50561523 10.88085938 C-4.81934363 10.92959376 -4.81934363 10.92959376 -7.66015625 13.16796875 C-8.07682292 15.66796875 -8.07682292 15.66796875 -7.66015625 18.16796875 C-4.93164056 20.89648444 -3.39992909 20.42106789 0.4140625 20.44140625 C1.63931641 20.46203125 2.86457031 20.48265625 4.12695312 20.50390625 C6.70761725 20.52975166 9.28836842 20.54809747 11.86914062 20.55859375 C18.86069326 20.69030275 23.70944459 20.8462133 29.33984375 25.16796875 C33.35374886 29.58326437 33.69264075 33.90446454 33.6171875 39.6640625 C33.06809629 44.62135077 30.47076747 47.22811139 26.77050781 50.30322266 C22.34191562 52.7103951 19.02633385 52.71386055 14.07421875 52.62890625 C13.19960999 52.62798981 12.32500122 52.62707336 11.42388916 52.62612915 C9.58494604 52.62011148 7.74601188 52.60442086 5.90722656 52.57958984 C3.08492205 52.54290478 0.26392515 52.53857197 -2.55859375 52.5390625 C-4.34766765 52.52923726 -6.13673265 52.51758285 -7.92578125 52.50390625 C-8.77158752 52.5016806 -9.6173938 52.49945496 -10.48883057 52.49716187 C-16.42795563 52.40016937 -16.42795563 52.40016937 -18.66015625 50.16796875 C-18.41015625 46.60546875 -18.41015625 46.60546875 -17.66015625 43.16796875 C-14.4955401 41.58566067 -11.06936258 41.92639062 -7.58984375 41.8515625 C-6.79361603 41.8307814 -5.99738831 41.81000031 -5.17703247 41.78858948 C-2.6298294 41.72312726 -0.082522 41.6642246 2.46484375 41.60546875 C4.19011502 41.56228035 5.91537568 41.51866596 7.640625 41.47460938 C11.8735906 41.3674493 16.10666128 41.26617252 20.33984375 41.16796875 C21.59649353 38.26196614 22.33984375 36.37192291 22.33984375 33.16796875 C18.94944618 32.14569473 15.82113121 32.02930533 12.2890625 31.9921875 C11.11537109 31.96833984 9.94167969 31.94449219 8.73242188 31.91992188 C6.27426184 31.87716 3.81587549 31.84579764 1.35742188 31.82617188 C-5.44814525 31.66599706 -10.25660061 31.49826644 -15.66015625 27.16796875 C-18.5757252 23.5502832 -19.07031012 20.76140834 -19.03515625 16.16796875 C-19.04289062 15.15734375 -19.050625 14.14671875 -19.05859375 13.10546875 C-18.43746136 8.52613978 -16.54814334 5.96715713 -13.16015625 2.91796875 C-8.87762071 -0.07980613 -5.03468848 0.00776053 0 0 Z " fill="#000000" transform="translate(1289.66015625,637.83203125)"/>
<path d="M0 0 C3.4695801 1.23913575 5.07886777 3.28939029 7.625 5.9375 C8.40246582 6.71496582 9.17993164 7.49243164 9.98095703 8.29345703 C27.625 25.9375 27.625 25.9375 29.15576172 27.71826172 C30.81981995 29.36323217 30.81981995 29.36323217 34.625 28.9375 C35.90799701 26.37150597 35.80117702 24.43261714 35.87109375 21.5625 C35.90396484 20.49515625 35.93683594 19.4278125 35.97070312 18.328125 C36.03189827 16.06781064 36.08919045 13.80738724 36.14257812 11.546875 C36.17673828 10.47953125 36.21089844 9.4121875 36.24609375 8.3125 C36.28367798 6.83910156 36.28367798 6.83910156 36.32202148 5.3359375 C36.625 2.9375 36.625 2.9375 38.625 0.9375 C41.625 0.6875 41.625 0.6875 44.625 0.9375 C47.11761318 3.43011318 46.87742752 4.1925679 46.88378906 7.63085938 C46.89009338 8.60526978 46.89639771 9.57968018 46.90289307 10.58361816 C46.8988446 11.63883667 46.89479614 12.69405518 46.890625 13.78125 C46.89349518 15.40129944 46.89349518 15.40129944 46.89642334 17.05407715 C46.89778607 19.34057854 46.89408352 21.62708764 46.88574219 23.91357422 C46.87504412 27.42302755 46.88563473 30.93196893 46.8984375 34.44140625 C46.89711592 36.6588553 46.89455356 38.87630403 46.890625 41.09375 C46.89467346 42.14896851 46.89872192 43.20418701 46.90289307 44.29138184 C46.89658875 45.26579224 46.89028442 46.24020264 46.88378906 47.24414062 C46.88219788 48.10414673 46.88060669 48.96415283 46.87896729 49.85021973 C46.625 51.9375 46.625 51.9375 44.625 53.9375 C41.96484375 54.5 41.96484375 54.5 38.625 53.9375 C35.8207488 51.91370259 33.53996494 49.46124793 31.1875 46.9375 C30.19182007 45.90508179 30.19182007 45.90508179 29.17602539 44.85180664 C24.84853216 40.33655578 20.68455401 35.69426273 16.625 30.9375 C14.70299583 28.7183281 12.85802962 26.87926488 10.625 24.9375 C8.0047374 24.72862999 8.0047374 24.72862999 5.625 24.9375 C5.60518066 25.71464355 5.58536133 26.49178711 5.56494141 27.29248047 C5.46992991 30.79950691 5.36015441 34.30591794 5.25 37.8125 C5.2190625 39.03582031 5.188125 40.25914062 5.15625 41.51953125 C5.09824219 43.26943359 5.09824219 43.26943359 5.0390625 45.0546875 C5.0076416 46.13347168 4.9762207 47.21225586 4.94384766 48.32373047 C4.625 50.9375 4.625 50.9375 2.625 52.9375 C-0.375 53.1875 -0.375 53.1875 -3.375 52.9375 C-5.8651843 50.4473157 -5.63125291 49.67963477 -5.6496582 46.24414062 C-5.65919022 45.26973022 -5.66872223 44.29531982 -5.67854309 43.29138184 C-5.67763168 42.23616333 -5.67672028 41.18094482 -5.67578125 40.09375 C-5.68006638 39.01371704 -5.6843515 37.93368408 -5.68876648 36.82092285 C-5.69451678 34.53443097 -5.69500492 32.24792079 -5.69067383 29.96142578 C-5.68751291 26.45183313 -5.71096842 22.94308214 -5.73632812 19.43359375 C-5.73860084 17.2161469 -5.73930474 14.99869778 -5.73828125 12.78125 C-5.747491 11.72603149 -5.75670074 10.67081299 -5.76618958 9.58361816 C-5.75996078 8.60920776 -5.75373199 7.63479736 -5.74731445 6.63085938 C-5.74794388 5.77085327 -5.7485733 4.91084717 -5.7492218 4.02478027 C-5.62572861 3.33597778 -5.50223541 2.64717529 -5.375 1.9375 C-2.375 -0.0625 -2.375 -0.0625 0 0 Z " fill="#000000" transform="translate(643.375,637.0625)"/>
<path d="M0 0 C3 0.25 3 0.25 5 2.25 C5.31884766 4.12939453 5.31884766 4.12939453 5.4140625 6.3828125 C5.45273437 7.18847656 5.49140625 7.99414062 5.53125 8.82421875 C5.5621875 9.66597656 5.593125 10.50773438 5.625 11.375 C5.66367187 12.22449219 5.70234375 13.07398438 5.7421875 13.94921875 C5.83656494 16.04911684 5.91937586 18.14952891 6 20.25 C9.95096978 20.29939662 13.9018203 20.33571755 17.85302734 20.35986328 C19.8591136 20.37488107 21.86511324 20.40028981 23.87109375 20.42578125 C25.75634766 20.43544922 25.75634766 20.43544922 27.6796875 20.4453125 C28.84226074 20.45578613 30.00483398 20.46625977 31.20263672 20.47705078 C34.13910279 20.54261997 34.13910279 20.54261997 36 18.25 C36.25497409 15.5611823 36.41993027 12.94411106 36.5 10.25 C36.72972973 2.52027027 36.72972973 2.52027027 39 0.25 C42 0 42 0 45 0.25 C47.47565035 2.72565035 47.25234962 3.44305733 47.25878906 6.8515625 C47.26509338 7.80595215 47.27139771 8.7603418 47.27789307 9.74365234 C47.2738446 10.77699707 47.26979614 11.8103418 47.265625 12.875 C47.26849518 14.46175537 47.26849518 14.46175537 47.27142334 16.08056641 C47.27278602 18.31998939 47.26908382 20.55942026 47.26074219 22.79882812 C47.25004402 26.23585677 47.26063488 29.6723627 47.2734375 33.109375 C47.27211592 35.28125116 47.26955356 37.45312699 47.265625 39.625 C47.26967346 40.65834473 47.27372192 41.69168945 47.27789307 42.75634766 C47.27158875 43.7107373 47.26528442 44.66512695 47.25878906 45.6484375 C47.25719788 46.49067871 47.25560669 47.33291992 47.25396729 48.20068359 C47 50.25 47 50.25 45 52.25 C42 52.5 42 52.5 39 52.25 C37 50.25 37 50.25 36.77294922 48.27880859 C36.78342285 47.49328613 36.79389648 46.70776367 36.8046875 45.8984375 C36.81113281 45.04765625 36.81757812 44.196875 36.82421875 43.3203125 C36.84097656 42.43085937 36.85773437 41.54140625 36.875 40.625 C36.88402344 39.7278125 36.89304687 38.830625 36.90234375 37.90625 C36.9259503 35.68723414 36.9588769 33.46874923 37 31.25 C33.06690266 31.34363611 29.13435915 31.44975145 25.2019043 31.56738281 C23.2070464 31.62444092 21.2119146 31.67164442 19.21679688 31.71875 C17.96318359 31.75742187 16.70957031 31.79609375 15.41796875 31.8359375 C14.26063232 31.8673584 13.1032959 31.8987793 11.91088867 31.93115234 C8.80872972 32.04471033 8.80872972 32.04471033 6 34.25 C5.66815516 36.97523905 5.48763079 39.51906573 5.4375 42.25 C5.25470009 49.99529991 5.25470009 49.99529991 3 52.25 C0 52.5 0 52.5 -3 52.25 C-5.47565035 49.77434965 -5.25234962 49.05694267 -5.25878906 45.6484375 C-5.26509338 44.69404785 -5.27139771 43.7396582 -5.27789307 42.75634766 C-5.2738446 41.72300293 -5.26979614 40.6896582 -5.265625 39.625 C-5.26753845 38.56716309 -5.2694519 37.50932617 -5.27142334 36.41943359 C-5.27278602 34.18001061 -5.26908382 31.94057974 -5.26074219 29.70117188 C-5.25004402 26.26414323 -5.26063488 22.8276373 -5.2734375 19.390625 C-5.27211592 17.21874884 -5.26955356 15.04687301 -5.265625 12.875 C-5.27169769 11.32498291 -5.27169769 11.32498291 -5.27789307 9.74365234 C-5.27158875 8.7892627 -5.26528442 7.83487305 -5.25878906 6.8515625 C-5.25719788 6.00932129 -5.25560669 5.16708008 -5.25396729 4.29931641 C-4.81121657 0.72666605 -3.42063711 0.28505309 0 0 Z " fill="#000000" transform="translate(544,637.75)"/>
<path d="M0 0 C1.41816261 0.00137466 1.41816261 0.00137466 2.86497498 0.0027771 C4.86307803 0.00881855 6.86117179 0.02458084 8.85913086 0.04931641 C11.92530498 0.08583877 14.99027168 0.09033575 18.05664062 0.08984375 C19.99610424 0.09967406 21.93555964 0.11133068 23.875 0.125 C24.79583878 0.12722565 25.71667755 0.12945129 26.66542053 0.13174438 C27.94200783 0.15088394 27.94200783 0.15088394 29.24438477 0.17041016 C30.36998558 0.18184555 30.36998558 0.18184555 31.51832581 0.19351196 C33.37109375 0.4609375 33.37109375 0.4609375 35.37109375 2.4609375 C35.62109375 5.4609375 35.62109375 5.4609375 35.37109375 8.4609375 C32.5942897 11.23774155 30.89128063 10.71463081 27.0078125 10.734375 C25.72841797 10.755 24.44902344 10.775625 23.13085938 10.796875 C21.0966875 10.81942516 19.06285534 10.8359252 17.02856445 10.84179688 C15.0631558 10.85135974 13.09792321 10.88634311 11.1328125 10.921875 C9.36877075 10.93420166 9.36877075 10.93420166 7.5690918 10.94677734 C3.66361329 11.57468312 2.01018005 12.52352503 -0.62890625 15.4609375 C-1.31411387 18.34832491 -1.31411387 18.34832491 -1.1171875 21.5390625 C-1.10107422 22.69921875 -1.08496094 23.859375 -1.06835938 25.0546875 C-1.00551758 26.86453125 -1.00551758 26.86453125 -0.94140625 28.7109375 C-0.91884766 29.93296875 -0.89628906 31.155 -0.87304688 32.4140625 C-0.81412383 35.43092252 -0.7318989 38.44531265 -0.62890625 41.4609375 C0.35505127 41.48075684 1.33900879 41.50057617 2.3527832 41.52099609 C6.00392214 41.59707737 9.65466384 41.6857905 13.30541992 41.77832031 C14.88541826 41.81659971 16.46550344 41.85145447 18.0456543 41.8828125 C20.3172102 41.92848626 22.58816884 41.98647534 24.859375 42.046875 C25.56572586 42.05842621 26.27207672 42.06997742 26.99983215 42.08187866 C30.64850768 42.19164798 32.25322921 42.38236114 35.37109375 44.4609375 C35.68359375 47.4609375 35.68359375 47.4609375 35.37109375 50.4609375 C32.4220941 53.40993715 29.24690639 52.78559553 25.29296875 52.796875 C24.48877502 52.8035318 23.6845813 52.8101886 22.85601807 52.81704712 C21.1512684 52.82718338 19.44647899 52.83186384 17.74169922 52.83154297 C15.14483174 52.83589769 12.54968944 52.87215293 9.953125 52.91015625 C8.29557871 52.9160281 6.63802437 52.91999503 4.98046875 52.921875 C3.82233673 52.94343155 3.82233673 52.94343155 2.64080811 52.96542358 C-2.53303359 52.92204198 -5.65910156 52.07005039 -9.62890625 48.4609375 C-12.65133958 43.21654903 -13.07428915 38.70449989 -13.02734375 32.82421875 C-13.03021393 32.02235641 -13.03308411 31.22049408 -13.03604126 30.39433289 C-13.03807091 28.71104215 -13.03261843 27.02772723 -13.02001953 25.34448242 C-13.00388556 22.77013673 -13.01993732 20.19734569 -13.0390625 17.62304688 C-13.03708111 15.98176738 -13.0332396 14.34048885 -13.02734375 12.69921875 C-13.03341644 11.93249344 -13.03948914 11.16576813 -13.04574585 10.37580872 C-13.00622515 7.37566577 -12.75327322 4.79588298 -11.70581055 1.97485352 C-8.16570715 -0.60563093 -4.25666551 -0.06657783 0 0 Z " fill="#000000" transform="translate(1192.62890625,637.5390625)"/>
<path d="M0 0 C0.8510582 -0.0127597 1.70211639 -0.02551941 2.57896423 -0.03866577 C3.9602224 -0.04200424 3.9602224 -0.04200424 5.36938477 -0.04541016 C6.78611229 -0.05539536 6.78611229 -0.05539536 8.23146057 -0.06558228 C10.23127287 -0.07571846 12.23111907 -0.080399 14.23095703 -0.08007812 C17.29524305 -0.08445047 20.35808825 -0.12075743 23.42211914 -0.15869141 C25.36286941 -0.16455945 27.30362654 -0.16852893 29.24438477 -0.17041016 C30.16319931 -0.18478119 31.08201385 -0.19915222 32.02867126 -0.21395874 C38.35106415 -0.16841572 38.35106415 -0.16841572 40.99072266 2.15136719 C42.13546795 4.92598911 41.78766607 6.47120425 40.87329102 9.29052734 C39.03704756 11.1267708 36.07254354 10.46471086 33.60766602 10.50146484 C32.32504883 10.52982422 31.04243164 10.55818359 29.72094727 10.58740234 C27.67586846 10.62854884 25.63101766 10.66542736 23.58569336 10.69189453 C21.61362624 10.71963644 19.64185935 10.76659684 17.67016602 10.81396484 C15.89657715 10.84369385 15.89657715 10.84369385 14.0871582 10.87402344 C10.57573704 11.32908911 8.65931035 12.1300578 5.87329102 14.29052734 C4.86074069 17.32817833 4.74428514 19.40214956 4.74047852 22.57958984 C4.73918945 23.60310547 4.73790039 24.62662109 4.73657227 25.68115234 C4.74043945 26.74849609 4.74430664 27.81583984 4.74829102 28.91552734 C4.74442383 29.99060547 4.74055664 31.06568359 4.73657227 32.17333984 C4.73850586 33.70474609 4.73850586 33.70474609 4.74047852 35.26708984 C4.74160645 36.20633301 4.74273437 37.14557617 4.74389648 38.11328125 C4.63023057 40.26877081 4.63023057 40.26877081 5.87329102 41.29052734 C8.28451134 41.40102734 10.67195536 41.45210542 13.08422852 41.46630859 C14.57122183 41.48950763 16.05820104 41.51362501 17.54516602 41.53857422 C19.89780077 41.5737065 22.24991797 41.60303662 24.6027832 41.61645508 C26.86807477 41.63191538 29.1318394 41.67211065 31.39672852 41.71630859 C32.45154922 41.71344597 32.45154922 41.71344597 33.52767944 41.71052551 C36.76481913 41.79175038 38.45331939 41.89491014 40.85620117 44.15844727 C42.18307446 46.93991256 41.80907418 48.40519593 40.87329102 51.29052734 C38.81363205 53.35018631 34.47438559 52.47878186 31.63891602 52.49365234 C30.39365143 52.50220245 30.39365143 52.50220245 29.12322998 52.51092529 C27.36121908 52.52039202 25.59919034 52.52691589 23.8371582 52.53076172 C21.14836342 52.54043712 18.46034269 52.57143144 15.77172852 52.60302734 C14.06079556 52.60956022 12.34985713 52.61480958 10.63891602 52.61865234 C9.83665588 52.63099915 9.03439575 52.64334595 8.20782471 52.65606689 C3.62168314 52.6378897 0.5312471 52.35412817 -3.12670898 49.29052734 C-6.93014482 44.85517433 -6.54766455 40.23733867 -6.48999023 34.68505859 C-6.49048874 33.76464279 -6.49098724 32.84422699 -6.49150085 31.8959198 C-6.48916626 29.95687696 -6.47947406 28.01783075 -6.46289062 26.07885742 C-6.4392081 23.10291672 -6.44234543 20.12786703 -6.44897461 17.15185547 C-6.44340058 15.26708448 -6.43629244 13.38231727 -6.42749023 11.49755859 C-6.42840164 10.60486771 -6.42931305 9.71217682 -6.43025208 8.79243469 C-6.42072006 7.96785263 -6.41118805 7.14327057 -6.40136719 6.29370117 C-6.3967598 5.56709793 -6.3921524 4.84049469 -6.3874054 4.09187317 C-5.82056614 0.17515824 -3.37623758 0.03430044 0 0 Z " fill="#000000" transform="translate(361.126708984375,637.70947265625)"/>
<path d="M0 0 C0.80802063 0.00091644 1.61604126 0.00183289 2.44854736 0.0027771 C4.14625977 0.00879124 5.84396266 0.02447119 7.54150391 0.04931641 C10.14655338 0.08602103 12.75018665 0.09033411 15.35546875 0.08984375 C17.00782485 0.09966848 18.6601713 0.11132267 20.3125 0.125 C21.4827774 0.12833847 21.4827774 0.12833847 22.67669678 0.13174438 C28.15840932 0.22872182 28.15840932 0.22872182 30.390625 2.4609375 C30.640625 5.4609375 30.640625 5.4609375 30.390625 8.4609375 C27.48565345 11.36590905 24.43663194 10.8153892 20.5390625 10.875 C19.76503082 10.89436615 18.99099915 10.9137323 18.19351196 10.9336853 C15.71766225 10.9935358 13.24176617 11.03988761 10.765625 11.0859375 C9.08852123 11.12411232 7.41143716 11.16316375 5.734375 11.203125 C1.61989337 11.30089486 -2.4943746 11.38041741 -6.609375 11.4609375 C-6.279375 21.3609375 -5.949375 31.2609375 -5.609375 41.4609375 C-2.08830078 41.53441406 -2.08830078 41.53441406 1.50390625 41.609375 C3.77765267 41.6633871 6.05129383 41.7206936 8.32495117 41.77832031 C9.90494951 41.81659971 11.48503469 41.85145447 13.06518555 41.8828125 C15.33674145 41.92848626 17.60770009 41.98647534 19.87890625 42.046875 C20.58525711 42.05842621 21.29160797 42.06997742 22.0193634 42.08187866 C25.66803893 42.19164798 27.27276046 42.38236114 30.390625 44.4609375 C30.703125 47.4609375 30.703125 47.4609375 30.390625 50.4609375 C27.44162535 53.40993715 24.26643764 52.78559553 20.3125 52.796875 C19.50830627 52.8035318 18.70411255 52.8101886 17.87554932 52.81704712 C16.17079965 52.82718338 14.46601024 52.83186384 12.76123047 52.83154297 C10.16436299 52.83589769 7.56922069 52.87215293 4.97265625 52.91015625 C3.31510996 52.9160281 1.65755562 52.91999503 0 52.921875 C-1.15813202 52.94343155 -1.15813202 52.94343155 -2.33966064 52.96542358 C-7.5221384 52.92196957 -10.59216731 52.01837999 -14.609375 48.4609375 C-17.44792498 44.1330665 -17.99305238 40.71691568 -18.0078125 35.59375 C-18.01167969 34.29566406 -18.01554687 32.99757813 -18.01953125 31.66015625 C-18.01324707 30.99032715 -18.00696289 30.32049805 -18.00048828 29.63037109 C-17.98446963 27.59794397 -18.00034407 25.56752098 -18.01953125 23.53515625 C-17.98070957 10.47812957 -17.98070957 10.47812957 -14.609375 4.4609375 C-9.72617825 0.33533464 -6.10394603 -0.113614 0 0 Z " fill="#000000" transform="translate(463.609375,637.5390625)"/>
<path d="M0 0 C1.36668068 -0.01925285 1.36668068 -0.01925285 2.76097107 -0.03889465 C3.74743118 -0.04628159 4.7338913 -0.05366852 5.75024414 -0.0612793 C6.76131729 -0.06935104 7.77239044 -0.07742279 8.81410217 -0.08573914 C10.9551522 -0.09958273 13.09622433 -0.11030365 15.23730469 -0.11816406 C18.51873214 -0.13541044 21.79916095 -0.1792983 25.08032227 -0.22338867 C27.1577888 -0.2335124 29.23526391 -0.2420295 31.31274414 -0.2487793 C32.29718002 -0.26628738 33.28161591 -0.28379547 34.29588318 -0.30183411 C35.6672921 -0.29744576 35.6672921 -0.29744576 37.06640625 -0.29296875 C38.27314247 -0.30176811 38.27314247 -0.30176811 39.5042572 -0.31074524 C41.59790039 0.17700195 41.59790039 0.17700195 43.39283752 2.03840637 C44.59790039 4.17700195 44.59790039 4.17700195 44.41040039 6.86450195 C43.59790039 9.17700195 43.59790039 9.17700195 41.59790039 10.17700195 C38.32241111 10.58312731 35.04488598 10.94548652 31.76196289 11.28637695 C27.72382988 12.42303662 26.81390669 13.65054619 24.59790039 17.17700195 C24.21131035 19.85761659 24.03927826 22.13977127 24.05883789 24.8137207 C24.04704498 25.5343721 24.03525208 26.2550235 24.02310181 26.99751282 C23.98795012 29.28673181 23.97868005 31.57503546 23.97290039 33.86450195 C23.95656345 36.16440623 23.93457623 38.46390333 23.90127563 40.7636261 C23.88162384 42.19140601 23.87231316 43.6193733 23.87435913 45.04728699 C23.8213759 49.95352644 23.8213759 49.95352644 21.59790039 52.17700195 C18.59790039 52.42700195 18.59790039 52.42700195 15.59790039 52.17700195 C12.71579996 49.29490152 13.32756624 47.18723128 13.28930664 43.1574707 C13.26413739 41.72843033 13.23873951 40.29939397 13.21313477 38.87036133 C13.18444393 36.61898929 13.16042702 34.36768726 13.14160156 32.11621094 C13.11986749 29.94208735 13.08041399 27.76880192 13.03930664 25.5949707 C13.02585205 24.29325928 13.01239746 22.99154785 12.99853516 21.65039062 C12.57642827 17.99084482 11.78881242 16.09889202 9.59790039 13.17700195 C5.77454181 10.50065095 1.57682475 10.80615297 -2.94116211 10.6184082 C-3.75327148 10.47274414 -4.56538086 10.32708008 -5.40209961 10.17700195 C-7.40209961 7.17700195 -7.40209961 7.17700195 -7.15209961 4.05200195 C-6.78084961 2.62887695 -6.78084961 2.62887695 -6.40209961 1.17700195 C-4.05523709 0.0035707 -2.61664726 0.03205048 0 0 Z " fill="#000000" transform="translate(268.402099609375,637.822998046875)"/>
<path d="M0 0 C3.5625 0.25 3.5625 0.25 7 1 C8.60552937 4.21105874 8.22102102 7.72293789 8.28125 11.25390625 C8.30886414 12.47798439 8.30886414 12.47798439 8.33703613 13.72679138 C8.41586693 17.22649796 8.48360136 20.7263995 8.55224609 24.22631836 C8.60384765 26.77728163 8.66113788 29.32807283 8.71875 31.87890625 C8.73232544 32.67680069 8.74590088 33.47469513 8.7598877 34.29676819 C8.50407073 37.95040633 8.50407073 37.95040633 10 41 C12.41118503 41.12286051 14.79822014 41.18603012 17.2109375 41.2109375 C18.69792764 41.23900797 20.18490666 41.26767245 21.671875 41.296875 C24.0244107 41.33814756 26.3767393 41.37501948 28.72949219 41.40136719 C30.99458101 41.42895542 33.25871541 41.47482806 35.5234375 41.5234375 C36.22665131 41.52669037 36.92986511 41.52994324 37.65438843 41.53329468 C40.54223194 41.60608704 42.55147279 41.69814704 44.98291016 43.33447266 C46 45 46 45 45.75 48.125 C45 51 45 51 44 52 C42.62940407 52.10312037 41.25360341 52.13848953 39.87915039 52.14526367 C39.00476822 52.15164352 38.13038605 52.15802338 37.22950745 52.16459656 C35.8029911 52.16626579 35.8029911 52.16626579 34.34765625 52.16796875 C32.89195473 52.17296135 32.89195473 52.17296135 31.40684509 52.17805481 C29.3497668 52.1831283 27.29268025 52.18546301 25.2355957 52.18530273 C22.07945256 52.18748826 18.92365929 52.20563691 15.76757812 52.22460938 C13.7734387 52.22754333 11.77929761 52.22952811 9.78515625 52.23046875 C8.83616959 52.23765427 7.88718292 52.24483978 6.90943909 52.25224304 C6.03190475 52.24916641 5.15437042 52.24608978 4.25024414 52.24291992 C3.4760463 52.24434494 2.70184845 52.24576996 1.90419006 52.24723816 C0 52 0 52 -2 50 C-2.25396729 47.95068359 -2.25396729 47.95068359 -2.25878906 45.3984375 C-2.26509338 44.44404785 -2.27139771 43.4896582 -2.27789307 42.50634766 C-2.2738446 41.47300293 -2.26979614 40.4396582 -2.265625 39.375 C-2.26753845 38.31716309 -2.2694519 37.25932617 -2.27142334 36.16943359 C-2.27278602 33.93001061 -2.26908382 31.69057974 -2.26074219 29.45117188 C-2.25004402 26.01414323 -2.26063488 22.5776373 -2.2734375 19.140625 C-2.27211592 16.96874884 -2.26955356 14.79687301 -2.265625 12.625 C-2.27169769 11.07498291 -2.27169769 11.07498291 -2.27789307 9.49365234 C-2.27158875 8.5392627 -2.26528442 7.58487305 -2.25878906 6.6015625 C-2.25719788 5.75932129 -2.25560669 4.91708008 -2.25396729 4.04931641 C-2 2 -2 2 0 0 Z " fill="#000000" transform="translate(839,638)"/>
<path d="M0 0 C3 0.25 3 0.25 5 2.25 C5.25396729 4.29931641 5.25396729 4.29931641 5.25878906 6.8515625 C5.26509338 7.80595215 5.27139771 8.7603418 5.27789307 9.74365234 C5.2738446 10.77699707 5.26979614 11.8103418 5.265625 12.875 C5.26753845 13.93283691 5.2694519 14.99067383 5.27142334 16.08056641 C5.27278602 18.31998939 5.26908382 20.55942026 5.26074219 22.79882812 C5.25004402 26.23585677 5.26063488 29.6723627 5.2734375 33.109375 C5.27211592 35.28125116 5.26955356 37.45312699 5.265625 39.625 C5.26967346 40.65834473 5.27372192 41.69168945 5.27789307 42.75634766 C5.27158875 43.7107373 5.26528442 44.66512695 5.25878906 45.6484375 C5.25640228 46.91179932 5.25640228 46.91179932 5.25396729 48.20068359 C5 50.25 5 50.25 3 52.25 C0 52.5 0 52.5 -3 52.25 C-5.47565035 49.77434965 -5.25234962 49.05694267 -5.25878906 45.6484375 C-5.26509338 44.69404785 -5.27139771 43.7396582 -5.27789307 42.75634766 C-5.2738446 41.72300293 -5.26979614 40.6896582 -5.265625 39.625 C-5.26753845 38.56716309 -5.2694519 37.50932617 -5.27142334 36.41943359 C-5.27278602 34.18001061 -5.26908382 31.94057974 -5.26074219 29.70117188 C-5.25004402 26.26414323 -5.26063488 22.8276373 -5.2734375 19.390625 C-5.27211592 17.21874884 -5.26955356 15.04687301 -5.265625 12.875 C-5.27169769 11.32498291 -5.27169769 11.32498291 -5.27789307 9.74365234 C-5.27158875 8.7892627 -5.26528442 7.83487305 -5.25878906 6.8515625 C-5.25719788 6.00932129 -5.25560669 5.16708008 -5.25396729 4.29931641 C-4.81121657 0.72666605 -3.42063711 0.28505309 0 0 Z " fill="#000000" transform="translate(1129,637.75)"/>
<path d="M0 0 C1.10472656 -0.00064453 2.20945312 -0.00128906 3.34765625 -0.00195312 C4.50136719 0.01802734 5.65507813 0.03800781 6.84375 0.05859375 C7.99746094 0.05150391 9.15117188 0.04441406 10.33984375 0.03710938 C18.81418024 0.10138381 18.81418024 0.10138381 21.17773438 1.86303711 C22.82156444 4.16529408 22.69763849 5.73576355 22.34375 8.49609375 C20.34375 10.49609375 20.34375 10.49609375 17.63818359 10.72314453 C16.51750488 10.7126709 15.39682617 10.70219727 14.2421875 10.69140625 C12.42460938 10.68173828 12.42460938 10.68173828 10.5703125 10.671875 C9.29929687 10.65511719 8.02828125 10.63835938 6.71875 10.62109375 C5.44 10.61207031 4.16125 10.60304688 2.84375 10.59375 C-0.32310167 10.57011678 -3.48958424 10.53717004 -6.65625 10.49609375 C-7.84375 7.74609375 -7.84375 7.74609375 -8.65625 4.49609375 C-6.77299725 0.17460483 -4.45811595 -0.00815855 0 0 Z " fill="#000000" transform="translate(1201.65625,658.50390625)"/>
<path d="M0 0 C1.15757812 -0.00257813 2.31515625 -0.00515625 3.5078125 -0.0078125 C4.72210938 -0.00007812 5.93640625 0.00765625 7.1875 0.015625 C8.40179688 0.00789062 9.61609375 0.00015625 10.8671875 -0.0078125 C12.60355469 -0.00394531 12.60355469 -0.00394531 14.375 0 C15.44105469 0.00225586 16.50710938 0.00451172 17.60546875 0.00683594 C20.1875 0.265625 20.1875 0.265625 22.1875 2.265625 C22.4375 5.265625 22.4375 5.265625 22.1875 8.265625 C19.50262835 10.95049665 18.12273019 10.52331949 14.375 10.53125 C13.21742188 10.53382813 12.05984375 10.53640625 10.8671875 10.5390625 C9.65289062 10.53132812 8.43859375 10.52359375 7.1875 10.515625 C5.97320312 10.52335938 4.75890625 10.53109375 3.5078125 10.5390625 C1.77144531 10.53519531 1.77144531 10.53519531 0 10.53125 C-1.59908203 10.52786621 -1.59908203 10.52786621 -3.23046875 10.52441406 C-5.8125 10.265625 -5.8125 10.265625 -7.8125 8.265625 C-8.0625 5.265625 -8.0625 5.265625 -7.8125 2.265625 C-5.12762835 -0.41924665 -3.74773019 0.00793051 0 0 Z " fill="#000000" transform="translate(375.8125,658.734375)"/>
</svg>
